<?xml version="1.0" standalone="no"?>
<!DOCTYPE svg PUBLIC "-//W3C//DTD SVG 20010904//EN"
 "http://www.w3.org/TR/2001/REC-SVG-20010904/DTD/svg10.dtd">
<svg version="1.0" xmlns="http://www.w3.org/2000/svg"
 width="612.000000pt" height="612.000000pt" viewBox="0 0 612.000000 612.000000"
 preserveAspectRatio="xMidYMid meet">

<g transform="translate(0.000000,612.000000) scale(0.100000,-0.100000)"
fill="#000000" stroke="none">
<path d="M1780 3895 l0 -285 430 0 430 0 0 -555 0 -555 118 -189 117 -188 3
860 c1 473 1 862 -1 863 -2 2 -193 4 -426 4 l-422 1 3 40 3 40 450 0 c248 0
456 -1 463 -1 9 0 12 -201 12 -972 l0 -971 58 -93 c31 -52 60 -93 63 -94 4 0
34 44 68 97 l61 98 0 969 0 970 32 -1 c18 0 216 -1 441 -2 l407 -1 0 -40 0
-40 -405 0 -405 0 0 -867 c0 -532 4 -863 9 -857 5 5 62 92 125 193 l116 185 0
553 0 553 405 0 405 0 0 285 0 285 -1280 0 -1280 0 0 -285z"/>
</g>
</svg>
